<svg id="Layer_1" data-name="Layer 1" xmlns="http://www.w3.org/2000/svg" viewBox="0 0 283.46 185.53"><defs><style>.cls-1{fill:#fff;stroke-width:0.5px;opacity:0.4;}.cls-1,.cls-5{stroke:#1b1b1a;stroke-miterlimit:10;}.cls-2{fill:#ffd61d;}.cls-3{fill:#0097dd;}.cls-4{font-size:10px;fill:#1b1b1a;font-family:MyriadPro-Regular, Myriad Pro;}.cls-5{fill:none;}</style></defs><polyline class="cls-1" points="231.94 163.28 43.88 163.28 43.88 21.15"/><circle class="cls-2" cx="52.51" cy="151.75" r="2.6"/><circle class="cls-2" cx="78" cy="141.69" r="2.6"/><circle class="cls-2" cx="146.43" cy="149.15" r="2.6"/><circle class="cls-2" cx="98.05" cy="154.35" r="2.6"/><circle class="cls-2" cx="69.16" cy="123.62" r="2.6"/><circle class="cls-2" cx="80.61" cy="90.53" r="2.6"/><circle class="cls-2" cx="56.9" cy="49.26" r="2.6"/><circle class="cls-2" cx="132.38" cy="139.08" r="2.6"/><circle class="cls-2" cx="56.93" cy="102.37" r="2.6"/><circle class="cls-2" cx="95.44" cy="114.4" r="2.6"/><circle class="cls-2" cx="118.33" cy="136.48" r="2.6"/><circle class="cls-2" cx="107.03" cy="87.93" r="2.6"/><circle class="cls-2" cx="155.76" cy="129.33" r="2.6"/><circle class="cls-2" cx="174.64" cy="123.22" r="2.6"/><circle class="cls-2" cx="95.62" cy="63.48" r="2.6"/><circle class="cls-2" cx="66.23" cy="70.5" r="2.6"/><circle class="cls-2" cx="118.33" cy="114.4" r="2.6"/><circle class="cls-2" cx="134.25" cy="98.57" r="2.6"/><circle class="cls-2" cx="120.42" cy="64.58" r="2.6"/><circle class="cls-2" cx="167.62" cy="149.53" r="2.6"/><circle class="cls-2" cx="188.69" cy="152.38" r="2.6"/><circle class="cls-2" cx="160.15" cy="92.89" r="2.6"/><circle class="cls-3" cx="82.92" cy="38.45" r="2.6"/><circle class="cls-3" cx="101.33" cy="28.8" r="2.6"/><circle class="cls-3" cx="127.23" cy="29.67" r="2.6"/><circle class="cls-3" cx="119.11" cy="82.76" r="2.6"/><circle class="cls-3" cx="111.42" cy="51.4" r="2.6"/><circle class="cls-3" cx="151.81" cy="63.92" r="2.6"/><circle class="cls-3" cx="172.42" cy="38.89" r="2.6"/><circle class="cls-3" cx="144.35" cy="113.12" r="2.6"/><circle class="cls-3" cx="172.45" cy="76.65" r="2.6"/><circle class="cls-3" cx="187.81" cy="59.06" r="2.6"/><circle class="cls-3" cx="197" cy="37.14" r="2.6"/><circle class="cls-3" cx="234.35" cy="71.82" r="2.6"/><circle class="cls-3" cx="164.98" cy="21.74" r="2.6"/><circle class="cls-3" cx="142.15" cy="45.01" r="2.6"/><circle class="cls-3" cx="77.18" cy="21.11" r="2.6"/><circle class="cls-3" cx="222.06" cy="43.28" r="2.6"/><circle class="cls-3" cx="193.52" cy="91.58" r="2.6"/><circle class="cls-3" cx="212.84" cy="107.85" r="2.6"/><circle class="cls-3" cx="227.11" cy="126.95" r="2.6"/><circle class="cls-3" cx="200.98" cy="140.34" r="2.6"/><circle class="cls-3" cx="210.17" cy="66.99" r="2.6"/><circle class="cls-3" cx="218.98" cy="29.64" r="2.6"/><circle class="cls-3" cx="219.42" cy="90.26" r="2.6"/><circle class="cls-3" cx="186.09" cy="111.33" r="2.6"/><text class="cls-4" transform="translate(230.72 175.82)">X</text><text class="cls-4" transform="translate(33.42 28.38)">Y</text><line class="cls-1" x1="39.44" y1="25.8" x2="43.98" y2="21.27"/><line class="cls-1" x1="48.4" y1="25.75" x2="43.86" y2="21.21"/><line class="cls-1" x1="227.63" y1="158.75" x2="232.17" y2="163.28"/><line class="cls-1" x1="227.69" y1="167.7" x2="232.23" y2="163.16"/><polyline class="cls-5" points="43.37 43.58 101.91 43.58 101.91 57.8 130.59 57.8 130.59 74.6 112.74 74.6 112.74 87.06 167.76 87.06 167.76 103.87 136.45 103.87 136.45 118.62 194.1 118.62 194.1 163.28"/></svg>