<svg id="Layer_1" data-name="Layer 1" xmlns="http://www.w3.org/2000/svg" viewBox="0 0 283.46 185.53"><defs><style>.cls-1,.cls-2{fill:#fff;}.cls-1{stroke:#1b1b1a;stroke-width:0.5px;opacity:0.4;}.cls-1,.cls-2,.cls-3{stroke-miterlimit:10;}.cls-2{stroke:#3da035;}.cls-3{fill:none;stroke:#dc001b;}.cls-4{fill:#ffd61d;}.cls-5{fill:#0097dd;}.cls-6{font-size:10px;font-family:MyriadPro-Regular, Myriad Pro;}.cls-6,.cls-7{fill:#1b1b1a;}.cls-8{font-size:8px;fill:#dc001b;font-family:Arial-ItalicMT, Arial;font-style:italic;}</style></defs><polyline class="cls-1" points="231.94 163.28 43.88 163.28 43.88 21.15"/><path class="cls-2" d="M43.88,163.28c182,0-.56-137.5,182-137.5"/><line class="cls-3" x1="134.86" y1="17.31" x2="134.86" y2="168.96"/><circle class="cls-4" cx="48.09" cy="163.1" r="2.6"/><circle class="cls-4" cx="55.11" cy="163.1" r="2.6"/><circle class="cls-4" cx="62.14" cy="163.1" r="2.6"/><circle class="cls-4" cx="69.16" cy="163.1" r="2.6"/><circle class="cls-4" cx="76.19" cy="163.1" r="2.6"/><circle class="cls-4" cx="83.21" cy="163.1" r="2.6"/><circle class="cls-4" cx="90.23" cy="163.1" r="2.6"/><circle class="cls-4" cx="97.26" cy="163.1" r="2.6"/><circle class="cls-4" cx="104.28" cy="163.1" r="2.6"/><circle class="cls-4" cx="111.31" cy="163.1" r="2.6"/><circle class="cls-4" cx="118.33" cy="163.1" r="2.6"/><circle class="cls-4" cx="125.36" cy="163.1" r="2.6"/><circle class="cls-4" cx="132.38" cy="163.1" r="2.6"/><circle class="cls-5" cx="139.41" cy="25.78" r="2.6"/><circle class="cls-5" cx="146.43" cy="25.78" r="2.6"/><circle class="cls-5" cx="153.45" cy="25.78" r="2.6"/><circle class="cls-5" cx="160.48" cy="25.78" r="2.6"/><circle class="cls-5" cx="167.5" cy="25.78" r="2.6"/><circle class="cls-5" cx="174.53" cy="25.78" r="2.6"/><circle class="cls-5" cx="181.55" cy="25.78" r="2.6"/><circle class="cls-5" cx="188.58" cy="25.78" r="2.6"/><circle class="cls-5" cx="195.6" cy="25.78" r="2.6"/><circle class="cls-5" cx="202.62" cy="25.78" r="2.6"/><circle class="cls-5" cx="209.65" cy="25.78" r="2.6"/><circle class="cls-5" cx="216.67" cy="25.78" r="2.6"/><circle class="cls-5" cx="223.7" cy="25.78" r="2.6"/><circle class="cls-5" cx="230.72" cy="25.78" r="2.6"/><text class="cls-6" transform="translate(132.38 178.89)">X</text><path class="cls-7" d="M207.31,39.42l1.19-5.72h.71l-.46,2.2a2.93,2.93,0,0,1,.74-.55,1.6,1.6,0,0,1,.7-.17,1.12,1.12,0,0,1,.8.27.94.94,0,0,1,.28.72,4.9,4.9,0,0,1-.12.8l-.51,2.45h-.71l.53-2.51a5.3,5.3,0,0,0,.11-.69.45.45,0,0,0-.14-.33.61.61,0,0,0-.41-.13,1.51,1.51,0,0,0-.73.2,1.5,1.5,0,0,0-.54.55,4.4,4.4,0,0,0-.36,1.13L208,39.42Z"/><path class="cls-7" d="M211.73,39.42l.87-4.15h.71l-.87,4.15Zm1-4.92.17-.8h.7l-.16.8Z"/><path class="cls-7" d="M213.5,39.8l.71.06a.86.86,0,0,0,.06.37.46.46,0,0,0,.21.18,1.18,1.18,0,0,0,.5.09,1.15,1.15,0,0,0,.92-.33,2.5,2.5,0,0,0,.34-1l.07-.34a1.62,1.62,0,0,1-1.17.56,1.39,1.39,0,0,1-1.06-.46,1.89,1.89,0,0,1-.42-1.31,2.49,2.49,0,0,1,.34-1.29,2.43,2.43,0,0,1,.79-.88,1.72,1.72,0,0,1,1-.3A1.4,1.4,0,0,1,217,36l.14-.68h.65l-.84,4a3.31,3.31,0,0,1-.36,1,1.56,1.56,0,0,1-.62.57,1.91,1.91,0,0,1-.91.2,2.53,2.53,0,0,1-.87-.13,1,1,0,0,1-.53-.37,1,1,0,0,1-.18-.57A.75.75,0,0,1,213.5,39.8Zm.88-2.21a2.08,2.08,0,0,0,.08.64,1,1,0,0,0,.34.46.81.81,0,0,0,.48.15,1.2,1.2,0,0,0,.69-.24,1.7,1.7,0,0,0,.56-.76,2.54,2.54,0,0,0,.21-1,1.17,1.17,0,0,0-.28-.82.94.94,0,0,0-.71-.3,1.05,1.05,0,0,0-.5.14,1.47,1.47,0,0,0-.45.42,2.24,2.24,0,0,0-.31.68A2.57,2.57,0,0,0,214.38,37.59Z"/><path class="cls-7" d="M218,39.42l1.19-5.72h.71l-.46,2.2a2.76,2.76,0,0,1,.74-.55,1.53,1.53,0,0,1,.69-.17,1.13,1.13,0,0,1,.81.27.94.94,0,0,1,.28.72,4.9,4.9,0,0,1-.12.8l-.52,2.45h-.7l.52-2.51a4.38,4.38,0,0,0,.12-.69.45.45,0,0,0-.14-.33.63.63,0,0,0-.41-.13,1.49,1.49,0,0,0-.73.2,1.61,1.61,0,0,0-.55.55,4.4,4.4,0,0,0-.36,1.13l-.37,1.78Z"/><path class="cls-7" d="M210.17,47.51l.71.07a2.38,2.38,0,0,1-.76,1.16,1.76,1.76,0,0,1-1.11.38,1.47,1.47,0,0,1-1.1-.44,1.69,1.69,0,0,1-.42-1.22,3.49,3.49,0,0,1,.27-1.34,2.19,2.19,0,0,1,.77-1,2,2,0,0,1,1.15-.34,1.46,1.46,0,0,1,1.06.38,1.31,1.31,0,0,1,.39,1l-.7.05a.84.84,0,0,0-.22-.62.85.85,0,0,0-.6-.22,1.06,1.06,0,0,0-.73.27,1.68,1.68,0,0,0-.49.82,3.42,3.42,0,0,0-.18,1.06,1.18,1.18,0,0,0,.23.79.74.74,0,0,0,.58.27,1,1,0,0,0,.66-.26A1.74,1.74,0,0,0,210.17,47.51Z"/><path class="cls-7" d="M211.43,47.45a2.88,2.88,0,0,1,.72-2,2,2,0,0,1,1.55-.66,1.64,1.64,0,0,1,1.21.47,1.74,1.74,0,0,1,.45,1.26,3.11,3.11,0,0,1-.28,1.33,2.21,2.21,0,0,1-.83.95,2.09,2.09,0,0,1-1.12.33,1.84,1.84,0,0,1-.88-.21,1.45,1.45,0,0,1-.61-.59A1.75,1.75,0,0,1,211.43,47.45Zm.71-.07a1.32,1.32,0,0,0,.28.89,1,1,0,0,0,.72.3,1.2,1.2,0,0,0,.45-.09,1.36,1.36,0,0,0,.41-.28,2,2,0,0,0,.33-.43,2.18,2.18,0,0,0,.21-.52,2.51,2.51,0,0,0,.13-.74,1.23,1.23,0,0,0-.29-.87.9.9,0,0,0-.71-.31,1.18,1.18,0,0,0-.61.16,1.51,1.51,0,0,0-.49.46,1.84,1.84,0,0,0-.32.71A2.94,2.94,0,0,0,212.14,47.38Z"/><path class="cls-7" d="M215.76,49l.87-4.15h.64l-.16.73a3.13,3.13,0,0,1,.79-.62,1.55,1.55,0,0,1,.74-.2,1.11,1.11,0,0,1,.79.27,1,1,0,0,1,.29.73,4,4,0,0,1-.11.73L219.09,49h-.71l.55-2.63a2.52,2.52,0,0,0,.08-.56.42.42,0,0,0-.14-.34.56.56,0,0,0-.41-.13,1.39,1.39,0,0,0-1,.39,2.5,2.5,0,0,0-.62,1.34l-.4,1.93Z"/><path class="cls-7" d="M220.31,49l.75-3.6h-.63l.11-.55h.63l.12-.59a2.93,2.93,0,0,1,.2-.63.78.78,0,0,1,.32-.33,1.32,1.32,0,0,1,.61-.12,4.3,4.3,0,0,1,.78.11l-.12.62a2.64,2.64,0,0,0-.61-.1.43.43,0,0,0-.31.11,1.12,1.12,0,0,0-.19.49l-.09.44h.79l-.11.55h-.79L221,49Z"/><path class="cls-7" d="M222.4,49l.87-4.15H224L223.11,49Zm1-4.92.17-.8h.71l-.17.8Z"/><path class="cls-7" d="M227,48.42a1.71,1.71,0,0,1-1.26.7,1.27,1.27,0,0,1-1-.44,1.83,1.83,0,0,1-.4-1.26,3.19,3.19,0,0,1,.31-1.39,2.39,2.39,0,0,1,.78-.94,1.67,1.67,0,0,1,.94-.31,1.27,1.27,0,0,1,1.17.75L228,43.3h.71L227.53,49h-.65Zm-1.93-1.14a2.51,2.51,0,0,0,.08.69.93.93,0,0,0,.3.41.75.75,0,0,0,.49.17,1.11,1.11,0,0,0,.87-.5,2.56,2.56,0,0,0,.53-1.64,1.09,1.09,0,0,0-.26-.77.83.83,0,0,0-.65-.28.9.9,0,0,0-.46.12,1.31,1.31,0,0,0-.42.38,2.47,2.47,0,0,0-.34.69A2.17,2.17,0,0,0,225.07,47.28Z"/><path class="cls-7" d="M231.7,47.61l.69.07a2,2,0,0,1-.68,1,1.88,1.88,0,0,1-1.27.47,1.76,1.76,0,0,1-.85-.22,1.39,1.39,0,0,1-.58-.62,2,2,0,0,1-.2-.92,2.94,2.94,0,0,1,.31-1.32,2.26,2.26,0,0,1,.81-.95,2,2,0,0,1,1.09-.31,1.54,1.54,0,0,1,1.18.46,1.74,1.74,0,0,1,.45,1.26,3.34,3.34,0,0,1-.06.62h-3.05a2,2,0,0,0,0,.22,1.3,1.3,0,0,0,.27.89.81.81,0,0,0,.65.31,1.29,1.29,0,0,0,.72-.24A1.58,1.58,0,0,0,231.7,47.61Zm-2-1H232v-.15a1.19,1.19,0,0,0-.26-.82.94.94,0,0,0-.69-.28,1.29,1.29,0,0,0-.82.31A1.9,1.9,0,0,0,229.65,46.58Z"/><path class="cls-7" d="M233.11,49l.86-4.15h.64l-.15.73a3.28,3.28,0,0,1,.78-.62,1.59,1.59,0,0,1,.75-.2,1.13,1.13,0,0,1,.79.27,1,1,0,0,1,.28.73,3.79,3.79,0,0,1-.1.73L236.43,49h-.7l.55-2.63a3.32,3.32,0,0,0,.08-.56.46.46,0,0,0-.14-.34.58.58,0,0,0-.41-.13,1.38,1.38,0,0,0-1,.39,2.5,2.5,0,0,0-.62,1.34L233.81,49Z"/><path class="cls-7" d="M240.42,47.51l.71.07a2.38,2.38,0,0,1-.76,1.16,1.8,1.8,0,0,1-1.12.38,1.45,1.45,0,0,1-1.09-.44,1.69,1.69,0,0,1-.42-1.22,3.49,3.49,0,0,1,.27-1.34,2.19,2.19,0,0,1,.77-1,2,2,0,0,1,1.15-.34,1.48,1.48,0,0,1,1.06.38,1.31,1.31,0,0,1,.39,1l-.7.05a.85.85,0,0,0-.23-.62.82.82,0,0,0-.59-.22,1.11,1.11,0,0,0-.74.27,1.76,1.76,0,0,0-.49.82,3.42,3.42,0,0,0-.18,1.06,1.13,1.13,0,0,0,.24.79.73.73,0,0,0,.58.27,1,1,0,0,0,.65-.26A1.75,1.75,0,0,0,240.42,47.51Z"/><path class="cls-7" d="M244.6,47.61l.69.07a2.09,2.09,0,0,1-.68,1,1.88,1.88,0,0,1-1.27.47,1.76,1.76,0,0,1-.85-.22,1.39,1.39,0,0,1-.58-.62,2,2,0,0,1-.21-.92A3,3,0,0,1,242,46a2.26,2.26,0,0,1,.81-.95,2,2,0,0,1,1.09-.31,1.54,1.54,0,0,1,1.18.46,1.73,1.73,0,0,1,.44,1.26,3.31,3.31,0,0,1,0,.62h-3.06a1.77,1.77,0,0,0,0,.22,1.3,1.3,0,0,0,.27.89.81.81,0,0,0,.65.31,1.29,1.29,0,0,0,.72-.24A1.58,1.58,0,0,0,244.6,47.61Zm-2-1h2.33v-.15a1.14,1.14,0,0,0-.27-.82.9.9,0,0,0-.68-.28,1.32,1.32,0,0,0-.83.31A2,2,0,0,0,242.55,46.58Z"/><text class="cls-8" transform="translate(118.33 12.33)">Threshold</text><path class="cls-7" d="M137,90.76l1.2-5.72h.7l-1.19,5.72Z"/><path class="cls-7" d="M139,89.19a2.92,2.92,0,0,1,.71-2,2,2,0,0,1,1.55-.66,1.64,1.64,0,0,1,1.21.47,1.72,1.72,0,0,1,.46,1.27,3.15,3.15,0,0,1-.29,1.33,2.16,2.16,0,0,1-.82.94,2.12,2.12,0,0,1-1.13.33,1.87,1.87,0,0,1-.88-.21,1.46,1.46,0,0,1-.6-.58A1.82,1.82,0,0,1,139,89.19Zm.71-.07A1.25,1.25,0,0,0,140,90a.91.91,0,0,0,.71.3,1.2,1.2,0,0,0,.45-.09,1.11,1.11,0,0,0,.41-.28,1.76,1.76,0,0,0,.33-.43,2.91,2.91,0,0,0,.22-.51,2.55,2.55,0,0,0,.12-.75,1.3,1.3,0,0,0-.28-.87.92.92,0,0,0-.72-.31,1.12,1.12,0,0,0-.6.16,1.65,1.65,0,0,0-.5.46,2.2,2.2,0,0,0-.32.71A2.88,2.88,0,0,0,139.68,89.12Z"/><path class="cls-7" d="M144.08,90.76l-.43-4.14h.68l.18,1.86.08,1c0,.07,0,.23,0,.47.08-.27.15-.47.2-.61s.14-.35.26-.61l1-2.16h.77l.14,2.07c0,.32,0,.74,0,1.26.13-.35.34-.83.63-1.45l.89-1.88h.71l-2,4.14h-.73l-.16-2.43c0-.15,0-.44,0-.88-.11.28-.23.58-.38.9l-1.1,2.41Z"/><path class="cls-7" d="M139.93,98.85l.71.08a2.35,2.35,0,0,1-.76,1.15,1.8,1.8,0,0,1-1.11.38,1.45,1.45,0,0,1-1.1-.44,1.69,1.69,0,0,1-.42-1.22,3.52,3.52,0,0,1,.27-1.34,2.25,2.25,0,0,1,.77-1,2,2,0,0,1,1.15-.34,1.48,1.48,0,0,1,1.06.38,1.32,1.32,0,0,1,.39,1l-.7,0a.82.82,0,0,0-.23-.61.79.79,0,0,0-.59-.23,1.11,1.11,0,0,0-.74.27,1.81,1.81,0,0,0-.49.82,3.42,3.42,0,0,0-.18,1.06,1.18,1.18,0,0,0,.24.8.75.75,0,0,0,.58.26,1,1,0,0,0,.66-.26A1.77,1.77,0,0,0,139.93,98.85Z"/><path class="cls-7" d="M141.19,98.79a2.88,2.88,0,0,1,.72-2,2,2,0,0,1,1.54-.66,1.62,1.62,0,0,1,1.21.47,1.72,1.72,0,0,1,.46,1.27,3.15,3.15,0,0,1-.29,1.33,2.16,2.16,0,0,1-.82.94,2.11,2.11,0,0,1-1.12.33,1.82,1.82,0,0,1-.88-.21,1.43,1.43,0,0,1-.61-.58A1.82,1.82,0,0,1,141.19,98.79Zm.71-.07a1.25,1.25,0,0,0,.28.89.93.93,0,0,0,.71.3,1.2,1.2,0,0,0,.45-.09,1.24,1.24,0,0,0,.42-.28,2,2,0,0,0,.32-.43,2.31,2.31,0,0,0,.22-.51,2.55,2.55,0,0,0,.12-.75,1.25,1.25,0,0,0-.28-.87.92.92,0,0,0-.72-.31,1.12,1.12,0,0,0-.6.16,1.52,1.52,0,0,0-.49.46A2,2,0,0,0,142,98,2.88,2.88,0,0,0,141.9,98.72Z"/><path class="cls-7" d="M145.51,100.36l.87-4.14H147l-.15.72a3.28,3.28,0,0,1,.78-.62,1.55,1.55,0,0,1,.74-.2,1.06,1.06,0,0,1,.79.28.92.92,0,0,1,.29.73,3.81,3.81,0,0,1-.1.72l-.53,2.51h-.7l.55-2.62a3.55,3.55,0,0,0,.08-.57.46.46,0,0,0-.14-.34.66.66,0,0,0-.42-.13,1.34,1.34,0,0,0-1,.4,2.47,2.47,0,0,0-.63,1.34l-.4,1.92Z"/><path class="cls-7" d="M150.06,100.36l.76-3.6h-.64l.12-.54h.63l.12-.59a3,3,0,0,1,.19-.64.79.79,0,0,1,.33-.32,1.18,1.18,0,0,1,.61-.13,4.3,4.3,0,0,1,.78.11l-.13.62a2.56,2.56,0,0,0-.6-.09.41.41,0,0,0-.31.1.92.92,0,0,0-.19.49l-.09.45h.78l-.11.54h-.79l-.75,3.6Z"/><path class="cls-7" d="M152.16,100.36l.87-4.14h.7l-.86,4.14Zm1-4.92.17-.8h.7l-.17.8Z"/><path class="cls-7" d="M156.76,99.76a1.68,1.68,0,0,1-1.26.7,1.28,1.28,0,0,1-1-.44,1.83,1.83,0,0,1-.39-1.26,3.05,3.05,0,0,1,.31-1.39,2.35,2.35,0,0,1,.78-.93,1.66,1.66,0,0,1,.93-.32,1.25,1.25,0,0,1,1.17.75l.47-2.23h.7l-1.19,5.72h-.65Zm-1.94-1.13a2.07,2.07,0,0,0,.09.68.89.89,0,0,0,.29.42.79.79,0,0,0,.5.16,1.09,1.09,0,0,0,.87-.5,2.56,2.56,0,0,0,.52-1.64,1.06,1.06,0,0,0-.26-.77.85.85,0,0,0-.64-.28.94.94,0,0,0-.47.12,1.29,1.29,0,0,0-.41.38,2.47,2.47,0,0,0-.35.69A2.5,2.5,0,0,0,154.82,98.63Z"/><path class="cls-7" d="M161.46,99l.69.08a2.14,2.14,0,0,1-.68,1,1.88,1.88,0,0,1-1.28.46,1.74,1.74,0,0,1-.84-.21,1.47,1.47,0,0,1-.59-.62,2.12,2.12,0,0,1-.2-.93,3,3,0,0,1,.32-1.32,2.32,2.32,0,0,1,.81-.95,2.05,2.05,0,0,1,1.08-.31,1.6,1.6,0,0,1,1.19.46,1.77,1.77,0,0,1,.44,1.26,4.7,4.7,0,0,1-.05.63h-3.06a1.7,1.7,0,0,0,0,.22,1.34,1.34,0,0,0,.26.88.83.83,0,0,0,.66.31,1.24,1.24,0,0,0,.71-.24A1.53,1.53,0,0,0,161.46,99Zm-2.05-1h2.32a1.18,1.18,0,0,0,0-.16,1.13,1.13,0,0,0-.27-.81.89.89,0,0,0-.68-.29A1.27,1.27,0,0,0,160,97,1.8,1.8,0,0,0,159.41,97.93Z"/><path class="cls-7" d="M162.86,100.36l.87-4.14h.64l-.15.72a3.28,3.28,0,0,1,.78-.62,1.55,1.55,0,0,1,.74-.2,1.06,1.06,0,0,1,.79.28,1,1,0,0,1,.29.73,3.81,3.81,0,0,1-.1.72l-.53,2.51h-.71l.55-2.62a2.86,2.86,0,0,0,.09-.57.43.43,0,0,0-.15-.34.61.61,0,0,0-.41-.13,1.38,1.38,0,0,0-1,.4,2.46,2.46,0,0,0-.62,1.34l-.4,1.92Z"/><path class="cls-7" d="M170.17,98.85l.71.08a2.34,2.34,0,0,1-.75,1.15,1.8,1.8,0,0,1-1.12.38,1.45,1.45,0,0,1-1.09-.44,1.69,1.69,0,0,1-.42-1.22,3.51,3.51,0,0,1,.26-1.34,2.2,2.2,0,0,1,.78-1,2,2,0,0,1,1.14-.34,1.46,1.46,0,0,1,1.06.38,1.32,1.32,0,0,1,.39,1l-.69,0a.86.86,0,0,0-.23-.61.81.81,0,0,0-.59-.23,1.09,1.09,0,0,0-.74.27,1.81,1.81,0,0,0-.49.82,3.42,3.42,0,0,0-.18,1.06,1.23,1.23,0,0,0,.23.8.77.77,0,0,0,.58.26,1,1,0,0,0,.66-.26A1.61,1.61,0,0,0,170.17,98.85Z"/><path class="cls-7" d="M174.36,99l.69.08a2.09,2.09,0,0,1-.69,1,1.86,1.86,0,0,1-1.27.46,1.72,1.72,0,0,1-.84-.21,1.47,1.47,0,0,1-.59-.62,2.12,2.12,0,0,1-.2-.93,3.11,3.11,0,0,1,.31-1.32,2.34,2.34,0,0,1,.82-.95,2.05,2.05,0,0,1,1.08-.31,1.6,1.6,0,0,1,1.19.46,1.77,1.77,0,0,1,.44,1.26,4.7,4.7,0,0,1-.05.63h-3.06a1.8,1.8,0,0,0,0,.22,1.29,1.29,0,0,0,.27.88.83.83,0,0,0,.66.31,1.24,1.24,0,0,0,.71-.24A1.53,1.53,0,0,0,174.36,99Zm-2.06-1h2.33c0-.08,0-.13,0-.16a1.13,1.13,0,0,0-.27-.81.89.89,0,0,0-.68-.29,1.25,1.25,0,0,0-.83.32A1.88,1.88,0,0,0,172.3,97.93Z"/><path class="cls-7" d="M44.93,148.55l1.2-5.73h.71l-.46,2.2a3.16,3.16,0,0,1,.73-.55,1.59,1.59,0,0,1,.7-.16,1.11,1.11,0,0,1,.8.27,1,1,0,0,1,.29.72,4.24,4.24,0,0,1-.13.8l-.51,2.45h-.71l.53-2.51a4.8,4.8,0,0,0,.12-.69.4.4,0,0,0-.15-.33.54.54,0,0,0-.4-.13,1.5,1.5,0,0,0-1.28.75,4.27,4.27,0,0,0-.36,1.13l-.37,1.78Z"/><path class="cls-7" d="M49.36,148.55l.86-4.15h.71l-.87,4.15Zm1-4.93.16-.8h.71l-.17.8Z"/><path class="cls-7" d="M51.12,148.92l.72.07a.72.72,0,0,0,0,.36.41.41,0,0,0,.22.19,1.42,1.42,0,0,0,1.41-.24,2.4,2.4,0,0,0,.34-1l.07-.34a1.62,1.62,0,0,1-1.17.56,1.35,1.35,0,0,1-1-.46,1.89,1.89,0,0,1-.42-1.31,2.58,2.58,0,0,1,.33-1.29,2.53,2.53,0,0,1,.79-.88,1.74,1.74,0,0,1,1-.3,1.38,1.38,0,0,1,1.26.77l.14-.68h.65l-.84,4a3.13,3.13,0,0,1-.36,1,1.48,1.48,0,0,1-.61.58,2.08,2.08,0,0,1-.92.2,2.47,2.47,0,0,1-.86-.13,1.1,1.1,0,0,1-.54-.38.91.91,0,0,1-.18-.56A1.8,1.8,0,0,1,51.12,148.92Zm.88-2.21a1.7,1.7,0,0,0,.09.64,1,1,0,0,0,.33.46.77.77,0,0,0,.48.16,1.2,1.2,0,0,0,.69-.24,1.74,1.74,0,0,0,.56-.76,2.58,2.58,0,0,0,.21-1,1.13,1.13,0,0,0-.28-.81,1,1,0,0,0-1.2-.16,1.47,1.47,0,0,0-.45.42,2,2,0,0,0-.32.68A2.6,2.6,0,0,0,52,146.71Z"/><path class="cls-7" d="M55.61,148.55l1.19-5.73h.71l-.46,2.2a3.19,3.19,0,0,1,.74-.55,1.59,1.59,0,0,1,.7-.16,1.12,1.12,0,0,1,.8.27.94.94,0,0,1,.28.72,4.9,4.9,0,0,1-.12.8l-.51,2.45h-.71l.53-2.51a5.88,5.88,0,0,0,.11-.69.42.42,0,0,0-.14-.33.56.56,0,0,0-.41-.13,1.51,1.51,0,0,0-.73.2,1.43,1.43,0,0,0-.54.55,4.27,4.27,0,0,0-.36,1.13l-.37,1.78Z"/><path class="cls-7" d="M47.8,156.64l.7.07a2.42,2.42,0,0,1-.75,1.16,1.8,1.8,0,0,1-1.12.37,1.44,1.44,0,0,1-1.09-.43,1.71,1.71,0,0,1-.42-1.23,3.44,3.44,0,0,1,.27-1.33,2.13,2.13,0,0,1,.77-1,2,2,0,0,1,1.14-.34,1.46,1.46,0,0,1,1.06.37,1.33,1.33,0,0,1,.39,1l-.69.05a.85.85,0,0,0-.23-.62.8.8,0,0,0-.59-.22,1.09,1.09,0,0,0-.74.27,1.76,1.76,0,0,0-.49.82,3.31,3.31,0,0,0-.18,1,1.16,1.16,0,0,0,.24.8.72.72,0,0,0,.57.27,1,1,0,0,0,.66-.27A1.71,1.71,0,0,0,47.8,156.64Z"/><path class="cls-7" d="M49.06,156.57a2.94,2.94,0,0,1,.71-2,2,2,0,0,1,1.55-.65,1.6,1.6,0,0,1,1.21.47,1.7,1.7,0,0,1,.46,1.26A3.12,3.12,0,0,1,52.7,157a2.16,2.16,0,0,1-2,1.27,2,2,0,0,1-.88-.2,1.48,1.48,0,0,1-.6-.59A1.76,1.76,0,0,1,49.06,156.57Zm.71-.07a1.24,1.24,0,0,0,.28.89.89.89,0,0,0,.71.31,1,1,0,0,0,.45-.1,1.11,1.11,0,0,0,.41-.28,1.7,1.7,0,0,0,.33-.42,3,3,0,0,0,.22-.52,2.54,2.54,0,0,0,.12-.74,1.31,1.31,0,0,0-.28-.88,1,1,0,0,0-.72-.31,1.22,1.22,0,0,0-.6.16,1.79,1.79,0,0,0-.5.46,2.3,2.3,0,0,0-.32.71A2.88,2.88,0,0,0,49.77,156.5Z"/><path class="cls-7" d="M53.38,158.15l.87-4.15h.64l-.15.72a3.56,3.56,0,0,1,.78-.62,1.54,1.54,0,0,1,.74-.19,1.1,1.1,0,0,1,.79.27,1,1,0,0,1,.29.73,3.89,3.89,0,0,1-.1.73l-.53,2.51H56l.55-2.63a2.67,2.67,0,0,0,.09-.57.41.41,0,0,0-.15-.33.56.56,0,0,0-.41-.13,1.37,1.37,0,0,0-1,.39,2.43,2.43,0,0,0-.63,1.34l-.4,1.93Z"/><path class="cls-7" d="M57.93,158.15l.75-3.6h-.63l.11-.55h.64l.12-.59a2.63,2.63,0,0,1,.19-.64.85.85,0,0,1,.33-.32,1.29,1.29,0,0,1,.61-.13,3.7,3.7,0,0,1,.78.12l-.13.62a2.19,2.19,0,0,0-.6-.1.44.44,0,0,0-.32.11,1,1,0,0,0-.18.49l-.1.44h.79l-.11.55h-.79l-.75,3.6Z"/><path class="cls-7" d="M60,158.15l.86-4.15h.71l-.87,4.15Zm1-4.93.17-.8h.7l-.17.8Z"/><path class="cls-7" d="M64.63,157.55a1.71,1.71,0,0,1-1.27.69,1.26,1.26,0,0,1-1-.43,1.84,1.84,0,0,1-.39-1.27,3,3,0,0,1,.31-1.38,2.39,2.39,0,0,1,.78-.94,1.64,1.64,0,0,1,.93-.31,1.26,1.26,0,0,1,1.17.74l.47-2.23h.7l-1.19,5.73H64.5Zm-1.94-1.14a2,2,0,0,0,.09.68.82.82,0,0,0,.29.42.78.78,0,0,0,.5.17,1.11,1.11,0,0,0,.87-.5,2.57,2.57,0,0,0,.52-1.64,1,1,0,0,0-.26-.77.83.83,0,0,0-.65-.28,1,1,0,0,0-.46.11,1.35,1.35,0,0,0-.41.39,2.47,2.47,0,0,0-.35.69A2.39,2.39,0,0,0,62.69,156.41Z"/><path class="cls-7" d="M69.33,156.74l.69.07a2.09,2.09,0,0,1-.69,1,1.86,1.86,0,0,1-1.27.46,1.72,1.72,0,0,1-.84-.21,1.42,1.42,0,0,1-.59-.62,2.11,2.11,0,0,1-.2-.92,2.91,2.91,0,0,1,.31-1.32,2.22,2.22,0,0,1,.82-.95,2,2,0,0,1,1.08-.31,1.57,1.57,0,0,1,1.19.46,1.76,1.76,0,0,1,.44,1.26,3.34,3.34,0,0,1-.06.62h-3a1.8,1.8,0,0,0,0,.22,1.32,1.32,0,0,0,.27.89.85.85,0,0,0,.66.3,1.22,1.22,0,0,0,.71-.23A1.53,1.53,0,0,0,69.33,156.74Zm-2.06-1H69.6c0-.07,0-.12,0-.15a1.14,1.14,0,0,0-.27-.82.88.88,0,0,0-.68-.28,1.24,1.24,0,0,0-.83.31A1.92,1.92,0,0,0,67.27,155.71Z"/><path class="cls-7" d="M70.73,158.15,71.6,154h.64l-.15.72a3.15,3.15,0,0,1,.78-.62,1.54,1.54,0,0,1,.74-.19,1.1,1.1,0,0,1,.79.27,1,1,0,0,1,.29.73,5,5,0,0,1-.1.73l-.53,2.51h-.71l.55-2.63A2.52,2.52,0,0,0,74,155a.4.4,0,0,0-.14-.33.56.56,0,0,0-.41-.13,1.41,1.41,0,0,0-1,.39,2.5,2.5,0,0,0-.62,1.34l-.4,1.93Z"/><path class="cls-7" d="M78,156.64l.71.07a2.43,2.43,0,0,1-.76,1.16,1.75,1.75,0,0,1-1.11.37,1.46,1.46,0,0,1-1.1-.43,1.71,1.71,0,0,1-.42-1.23,3.44,3.44,0,0,1,.27-1.33,2.19,2.19,0,0,1,.77-1,2,2,0,0,1,1.15-.34,1.46,1.46,0,0,1,1.06.37,1.33,1.33,0,0,1,.39,1l-.7.05a.84.84,0,0,0-.22-.62.81.81,0,0,0-.6-.22,1.06,1.06,0,0,0-.73.27,1.68,1.68,0,0,0-.49.82,3.31,3.31,0,0,0-.18,1,1.21,1.21,0,0,0,.23.8.74.74,0,0,0,.58.27,1,1,0,0,0,.66-.27A1.7,1.7,0,0,0,78,156.64Z"/><path class="cls-7" d="M82.23,156.74l.68.07a2.06,2.06,0,0,1-.68,1,1.86,1.86,0,0,1-1.27.46,1.69,1.69,0,0,1-.84-.21,1.36,1.36,0,0,1-.59-.62,2.11,2.11,0,0,1-.2-.92,2.91,2.91,0,0,1,.31-1.32,2.15,2.15,0,0,1,.82-.95,2,2,0,0,1,1.08-.31,1.54,1.54,0,0,1,1.18.46,1.72,1.72,0,0,1,.45,1.26,3.34,3.34,0,0,1-.06.62h-3a1.8,1.8,0,0,0,0,.22,1.32,1.32,0,0,0,.27.89.85.85,0,0,0,.65.3,1.23,1.23,0,0,0,.72-.23A1.6,1.6,0,0,0,82.23,156.74Zm-2.06-1H82.5v-.15a1.14,1.14,0,0,0-.26-.82.9.9,0,0,0-.69-.28,1.24,1.24,0,0,0-.82.31A1.85,1.85,0,0,0,80.17,155.71Z"/><text class="cls-6" transform="translate(33.42 94.53)">Y</text><text class="cls-6" transform="translate(33.42 25.78)">1</text><text class="cls-6" transform="translate(33.42 163.28)">0</text><line class="cls-1" x1="39.44" y1="25.8" x2="43.98" y2="21.27"/><line class="cls-1" x1="48.4" y1="25.75" x2="43.86" y2="21.21"/><line class="cls-1" x1="227.63" y1="158.75" x2="232.17" y2="163.28"/><line class="cls-1" x1="227.69" y1="167.7" x2="232.23" y2="163.16"/></svg>